HIERARCHY
ROOT Hips
{
	OFFSET 0.000000 0.000000 0.000000
	CHANNELS 6 Xposition Yposition Zposition Xrotation Yrotation Zrotation
	JOINT LeftUpLeg_virtual
	{
		OFFSET 0.000000 0.000000 0.000000
		CHANNELS 3 Xrotation Yrotation Zrotation
		JOINT LeftUpLeg
		{
			OFFSET 13.026900 -6.336304 -1.092800
			CHANNELS 3 Xrotation Yrotation Zrotation
			JOINT LeftLeg
			{
				OFFSET 0.524474 -46.096886 9.782700
				CHANNELS 3 Xrotation Yrotation Zrotation
				JOINT LeftFoot
				{
					OFFSET -0.524474 -53.427422 -12.948200
					CHANNELS 3 Xrotation Yrotation Zrotation
					JOINT LeftToeBase
					{
						OFFSET 0.192200 -14.009700 16.364100
						CHANNELS 3 Xrotation Yrotation Zrotation
						JOINT LeftToe_End
						{
							OFFSET -1.784700 -0.561700 9.474800
							CHANNELS 3 Xrotation Yrotation Zrotation
							End Site
							{
								OFFSET 0 0 0
							}
						}
					}
				}
			}
		}
	}
	JOINT RightUpLeg_virtual
	{
		OFFSET 0.000000 0.000000 0.000000
		CHANNELS 3 Xrotation Yrotation Zrotation
		JOINT RightUpLeg
		{
			OFFSET -12.883000 -6.336304 -1.092800
			CHANNELS 3 Xrotation Yrotation Zrotation
			JOINT RightLeg
			{
				OFFSET -0.524587 -46.096825 9.782800
				CHANNELS 3 Xrotation Yrotation Zrotation
				JOINT RightFoot
				{
					OFFSET 0.524587 -53.427383 -12.948300
					CHANNELS 3 Xrotation Yrotation Zrotation
					JOINT RightToeBase
					{
						OFFSET -0.192200 -14.009700 16.364100
						CHANNELS 3 Xrotation Yrotation Zrotation
						JOINT RightToe_End
						{
							OFFSET 1.784700 -0.561700 9.474800
							CHANNELS 3 Xrotation Yrotation Zrotation
							End Site
							{
								OFFSET 0 0 0
							}
						}
					}
				}
			}
		}
	}
	JOINT Spine_virtual
	{
		OFFSET 0.000000 0.000000 0.000000
		CHANNELS 3 Xrotation Yrotation Zrotation
		JOINT Spine
		{
			OFFSET 0.072000 7.257294 -0.789700
			CHANNELS 3 Xrotation Yrotation Zrotation
			JOINT Spine1
			{
				OFFSET 0.000000 12.508769 -0.658067
				CHANNELS 3 Xrotation Yrotation Zrotation
				JOINT Spine1_split
				{
					OFFSET 0.000000 12.508769 -0.658067
					CHANNELS 3 Xrotation Yrotation Zrotation
					JOINT Spine2
					{
						OFFSET 0.000000 12.508769 -0.658067
						CHANNELS 3 Xrotation Yrotation Zrotation
						JOINT Neck_virtual
						{
							OFFSET 0.000000 0.000000 0.000000
							CHANNELS 3 Xrotation Yrotation Zrotation
							JOINT Neck
							{
								OFFSET 0.000000 14.033295 7.520400
								CHANNELS 3 Xrotation Yrotation Zrotation
								JOINT Head
								{
									OFFSET 0.000000 8.198502 5.703100
									CHANNELS 3 Xrotation Yrotation Zrotation
									JOINT HeadTop_End
									{
										OFFSET 0.000000 17.760803 13.332701
										CHANNELS 3 Xrotation Yrotation Zrotation
										End Site
										{
											OFFSET 0 0 0
										}
									}
								}
							}
						}
						JOINT LeftShoulder_virtual
						{
							OFFSET 0.000000 0.000000 0.000000
							CHANNELS 3 Xrotation Yrotation Zrotation
							JOINT LeftShoulder
							{
								OFFSET 6.292450 5.785301 -0.669000
								CHANNELS 3 Xrotation Yrotation Zrotation
								JOINT LeftShoulder_split
								{
									OFFSET 6.292450 5.785301 -0.669000
									CHANNELS 3 Xrotation Yrotation Zrotation
									JOINT LeftArm
									{
										OFFSET 13.907140 -6.093903 1.965100
										CHANNELS 3 Xrotation Yrotation Zrotation
										JOINT LeftForeArm
										{
											OFFSET 34.140198 0.000000 0.000000
											CHANNELS 3 Xrotation Yrotation Zrotation
											JOINT LeftHand
											{
												OFFSET 40.960209 0.000000 0.000000
												CHANNELS 3 Xrotation Yrotation Zrotation
												End Site
												{
													OFFSET 0 0 0
												}
											}
										}
									}
								}
							}
						}
						JOINT RightShoulder_virtual
						{
							OFFSET 0.000000 0.000000 0.000000
							CHANNELS 3 Xrotation Yrotation Zrotation
							JOINT RightShoulder
							{
								OFFSET -6.292450 5.785301 -0.669000
								CHANNELS 3 Xrotation Yrotation Zrotation
								JOINT RightShoulder_split
								{
									OFFSET -6.292450 5.785301 -0.669000
									CHANNELS 3 Xrotation Yrotation Zrotation
									JOINT RightArm
									{
										OFFSET -13.907140 -6.093903 1.965100
										CHANNELS 3 Xrotation Yrotation Zrotation
										JOINT RightForeArm
										{
											OFFSET -34.140198 0.000000 0.000000
											CHANNELS 3 Xrotation Yrotation Zrotation
											JOINT RightHand
											{
												OFFSET -40.960209 0.000000 0.000000
												CHANNELS 3 Xrotation Yrotation Zrotation
												End Site
												{
													OFFSET 0 0 0
												}
											}
										}
									}
								}
							}
						}
					}
				}
			}
		}
	}
}
MOTION
Frames: 11
Frame Time: 0.03333333
1.050368 114.793655 -2.165539 0.000000 0.000000 0.000000 2.650674 -32.158754 1.132463 -19.369134 15.504914 16.658010 21.914993 11.219145 -3.123230 -6.117803 -3.570583 -5.762099 2.160325 -0.416883 -0.696096 0.000000 0.000000 0.000000 3.884089 -32.595357 1.378690 -20.154005 2.380306 -8.185910 17.663390 5.595397 -1.199639 1.149724 -0.535023 4.609754 -4.595862 0.163885 -0.133617 0.000000 0.000000 0.000000 4.063864 -30.672460 1.286518 8.789978 1.570992 -0.670863 0.689904 -0.852531 2.138784 0.131523 -0.755037 1.012020 0.000000 0.000000 0.000000 1.897442 -0.244411 2.308169 -4.528429 20.967977 -6.057493 -5.742234 12.915594 0.376947 0.000000 0.000000 0.000000 1.405533 -0.631719 2.728571 0.772334 -10.451926 -0.976541 2.128897 0.020257 0.884374 -59.866150 0.412173 -37.271478 7.000656 -59.946897 9.246157 0.000000 0.000000 0.000000 0.388281 -0.652464 2.911617 4.059649 7.826146 7.033259 -2.376965 -2.953773 -2.005200 -1.207924 2.659699 65.257410 13.229321 24.441945 -4.242271 0.000000 0.000000 0.000000 
1.054072 114.644806 -2.301128 0.000000 0.000000 0.000000 2.659512 -32.558446 1.363467 -19.513053 15.706794 16.628449 22.074224 10.999989 -3.088946 -6.109589 -3.917654 -5.835036 1.967930 -0.386217 -0.693093 0.000000 0.000000 0.000000 3.967542 -32.827518 1.575419 -20.184662 1.926199 -8.378999 17.842396 5.457424 -1.174602 1.214635 -0.457524 4.912655 -5.009033 0.080221 -0.022345 0.000000 0.000000 0.000000 3.969203 -30.727327 1.322638 8.788692 1.529715 -0.766633 0.620481 -0.896651 2.171550 0.225008 -1.019857 1.211032 0.000000 0.000000 0.000000 1.932069 -0.290961 2.382032 -4.122885 21.460912 -6.132117 -5.763033 13.414135 0.146283 0.000000 0.000000 0.000000 1.262499 -0.664827 2.743546 0.733921 -9.846233 -1.209924 2.089821 -0.236046 0.985839 -59.756704 0.668522 -36.921554 6.954611 -59.983336 9.032579 0.000000 0.000000 0.000000 0.317252 -0.716000 2.978640 3.954840 7.808711 7.361340 -2.351610 -3.375970 -1.936145 -0.514920 2.603898 64.862871 13.290751 24.279038 -4.272733 0.000000 0.000000 0.000000 
1.094893 114.416306 -2.499855 0.000000 0.000000 0.000000 2.911583 -32.573480 1.667918 -19.903841 15.786645 16.571482 22.486496 10.746303 -3.005335 -5.896081 -4.575551 -5.877315 1.814437 -0.334479 -0.707918 0.000000 0.000000 0.000000 4.040864 -32.806826 1.881462 -20.170459 1.424085 -8.785409 18.517681 5.285252 -1.143223 0.564749 -0.316010 5.383297 -4.794183 0.029654 0.079731 0.000000 0.000000 0.000000 4.001482 -30.609684 1.453532 8.613230 1.446219 -0.957631 0.549650 -0.899144 2.232255 0.407870 -1.253147 1.288347 0.000000 0.000000 0.000000 1.884370 -0.305126 2.492349 -3.863782 22.534064 -6.133348 -5.680662 15.043053 -0.295072 0.000000 0.000000 0.000000 1.147644 -0.659722 2.767711 0.704709 -8.720435 -1.340162 2.118351 -0.487731 1.025040 -59.532100 1.425815 -36.230038 6.490358 -60.257233 8.447341 0.000000 0.000000 0.000000 0.297509 -0.729932 3.055827 3.894775 7.853966 7.742441 -2.360507 -3.406576 -1.881482 0.461292 2.383585 64.298602 13.348345 24.280571 -4.269954 0.000000 0.000000 0.000000 
1.178175 114.177818 -2.644409 0.000000 0.000000 0.000000 3.348207 -32.164300 1.955961 -20.513297 15.719474 16.512609 22.956903 10.572471 -2.880465 -5.547467 -5.435687 -5.830420 1.817893 -0.261870 -0.757340 0.000000 0.000000 0.000000 4.196536 -32.416150 2.194895 -20.104213 1.031552 -9.295064 19.429556 5.122367 -1.096618 -0.577875 -0.023775 6.276919 -4.136842 0.035339 0.050092 0.000000 0.000000 0.000000 4.134150 -30.309531 1.591493 8.325424 1.355067 -1.161127 0.480737 -0.827327 2.292694 0.374460 -1.377290 1.204402 0.000000 0.000000 0.000000 1.737446 -0.256741 2.596262 -3.758414 24.091279 -6.126474 -5.494913 17.582654 -0.924507 0.000000 0.000000 0.000000 1.083667 -0.590735 2.770905 0.685318 -7.174032 -1.366272 2.217802 -0.595664 1.138976 -59.169922 2.645889 -35.137577 5.653573 -60.636726 7.556202 0.000000 0.000000 0.000000 0.320800 -0.656017 3.105435 3.872237 7.988826 8.098455 -2.281718 -3.026365 -1.886313 1.466993 2.105232 63.718493 13.401078 24.385995 -4.228861 0.000000 0.000000 0.000000 
1.270899 113.941109 -2.675262 0.000000 0.000000 0.000000 3.890468 -31.394302 2.158896 -21.357559 15.491313 16.425027 23.460052 10.488314 -2.711453 -5.137854 -6.389499 -5.698435 1.993772 -0.174545 -0.842235 0.000000 0.000000 0.000000 4.487959 -31.710147 2.418744 -19.986081 0.769613 -9.771345 20.374350 5.005781 -1.082854 -1.945326 0.369093 7.938120 -3.818287 0.100051 -0.187241 0.000000 0.000000 0.000000 4.362509 -29.857626 1.696704 7.954858 1.313861 -1.286873 0.426313 -0.664532 2.321231 0.308812 -1.408925 1.065416 0.000000 0.000000 0.000000 1.527431 -0.113975 2.643997 -3.750473 26.066768 -6.202340 -5.260093 20.734334 -1.701932 0.000000 0.000000 0.000000 1.076377 -0.423406 2.727485 0.677905 -5.346461 -1.313606 2.335979 -0.605084 1.303655 -58.655950 4.235484 -33.690772 4.684932 -61.049255 6.557737 0.000000 0.000000 0.000000 0.385568 -0.465921 3.087097 3.863654 8.174034 8.391943 -2.141625 -2.378299 -1.976642 2.290610 1.823147 63.225743 13.433935 24.461998 -4.155205 0.000000 0.000000 0.000000 
1.374619 113.688721 -2.503906 0.000000 0.000000 0.000000 4.336397 -30.355031 2.201715 -22.296466 15.182382 16.257066 24.060579 10.457614 -2.515279 -4.745233 -7.361015 -5.512894 2.214438 -0.083129 -0.927446 0.000000 0.000000 0.000000 4.793250 -30.608735 2.464823 -19.794675 0.603367 -10.068336 21.254922 4.904069 -1.173997 -3.565354 0.669552 10.123099 -4.108848 0.214077 -0.581391 0.000000 0.000000 0.000000 4.563476 -29.182226 1.714248 7.566621 1.365025 -1.278644 0.402198 -0.392836 2.288262 0.325834 -1.340932 0.961399 0.000000 0.000000 0.000000 1.302879 0.145179 2.607373 -3.758807 28.333153 -6.448186 -5.031466 24.180038 -2.591564 0.000000 0.000000 0.000000 1.129794 -0.140587 2.619983 0.683625 -3.391756 -1.250431 2.435532 -0.778926 1.329681 -58.069995 5.960000 -32.041749 3.822758 -61.592617 5.669123 0.000000 0.000000 0.000000 0.477037 -0.150599 2.979671 3.843116 8.369557 8.613533 -1.921410 -1.776495 -2.060391 2.811377 1.472099 62.879814 13.417537 24.238309 -4.056449 0.000000 0.000000 0.000000 
1.528803 113.423103 -2.158749 0.000000 0.000000 0.000000 4.578884 -29.085579 2.129061 -23.229996 14.931029 15.948698 24.916460 10.523509 -2.349568 -4.424749 -8.320581 -5.199820 2.316438 -0.000042 -0.972609 0.000000 0.000000 0.000000 5.076909 -29.140463 2.358783 -19.610551 0.426162 -10.192831 22.485208 4.629664 -1.391318 -5.438914 0.568288 11.904542 -4.673696 0.354036 -0.919675 0.000000 0.000000 0.000000 4.689482 -28.272554 1.673841 7.208446 1.520266 -1.103961 0.403358 -0.019962 2.187570 0.388538 -1.073098 0.925713 0.000000 0.000000 0.000000 1.114707 0.510869 2.474520 -3.639957 30.786716 -6.922156 -4.831672 27.689235 -3.541790 0.000000 0.000000 0.000000 1.215945 0.251794 2.444035 0.696409 -1.395567 -1.279209 2.605135 -1.160406 1.321781 -57.461487 7.555485 -30.374463 3.267637 -62.458938 5.052705 0.000000 0.000000 0.000000 0.588375 0.271747 2.784025 3.816552 8.543902 8.781440 -1.607987 -1.337521 -2.086015 3.017704 0.995275 62.720364 13.329607 23.568232 -3.947358 0.000000 0.000000 0.000000 
1.764481 113.082626 -1.692757 0.000000 0.000000 0.000000 4.674214 -27.717560 2.056567 -24.190696 14.870143 15.465575 26.133453 10.647295 -2.258136 -4.138366 -9.258293 -4.789527 2.114932 0.069421 -0.933825 0.000000 0.000000 0.000000 5.224846 -27.496024 2.204772 -19.828679 0.078494 -10.245357 24.662430 4.018850 -1.677699 -7.255271 -0.051473 12.688604 -5.497017 0.450040 -0.934287 0.000000 0.000000 0.000000 4.729289 -27.076888 1.646855 6.913356 1.773837 -0.806255 0.424364 0.421412 2.034005 0.475795 -0.813058 0.976297 0.000000 0.000000 0.000000 1.027708 0.957255 2.271534 -3.282356 33.299686 -7.666625 -4.649020 31.026462 -4.522814 0.000000 0.000000 0.000000 1.286647 0.733272 2.226616 0.709085 0.594206 -1.467031 2.792581 -1.657734 1.294232 -56.971359 8.928244 -28.732103 3.026930 -63.719880 4.723578 0.000000 0.000000 0.000000 0.699667 0.748819 2.519790 3.788889 8.654406 8.894888 -1.177786 -1.095135 -2.083885 2.952432 0.355194 62.727849 13.169102 22.536624 -3.864561 0.000000 0.000000 0.000000 
2.061437 112.706184 -1.080318 0.000000 0.000000 0.000000 4.552134 -26.093652 2.025460 -25.182267 15.037054 14.829401 27.638506 10.819749 -2.284834 -3.813852 -10.142249 -4.256741 1.666977 0.120082 -0.784652 0.000000 0.000000 0.000000 5.069466 -25.730381 2.045209 -20.732834 -0.374122 -10.397537 28.374920 3.159066 -1.959635 -8.431196 -1.039809 12.220206 -6.814783 0.446875 -0.442397 0.000000 0.000000 0.000000 4.650140 -25.380800 1.651021 6.764755 2.072817 -0.481158 0.464672 0.895929 1.861479 0.540815 -0.666682 0.947169 0.000000 0.000000 0.000000 1.027148 1.440302 2.042801 -2.683664 35.680447 -8.636830 -4.451507 33.948882 -5.506743 0.000000 0.000000 0.000000 1.315730 1.249781 2.006891 0.728072 2.594629 -1.835436 2.924129 -2.105345 1.266906 -56.716590 10.176369 -27.010157 3.012952 -65.335923 4.601112 0.000000 0.000000 0.000000 0.798213 1.234896 2.230451 3.770923 8.709208 8.932279 -0.676725 -1.074250 -2.020854 2.735089 -0.367766 62.866687 12.934655 21.392006 -3.850340 0.000000 0.000000 0.000000 
2.436803 112.316605 -0.465778 0.000000 0.000000 0.000000 4.220161 -24.034222 2.051477 -26.254498 15.295591 13.984644 29.252751 10.983397 -2.415531 -3.385824 -10.919648 -3.592171 1.161894 0.155757 -0.545533 0.000000 0.000000 0.000000 4.744757 -23.742895 1.975642 -22.431687 -0.860629 -10.804897 33.613970 2.321830 -2.216544 -8.423644 -2.189562 10.866310 -9.136578 0.279334 0.578056 0.000000 0.000000 0.000000 4.455892 -23.208933 1.694426 6.768465 2.356404 -0.218221 0.522836 1.353563 1.713059 0.545194 -0.581943 0.836238 0.000000 0.000000 0.000000 1.067587 1.901444 1.842305 -1.956376 37.742413 -9.702893 -4.155545 36.318916 -6.478103 0.000000 0.000000 0.000000 1.318773 1.751965 1.824526 0.757002 4.625460 -2.352741 3.031587 -2.438861 1.299226 -56.706908 11.508483 -25.093702 3.095537 -67.243301 4.556639 0.000000 0.000000 0.000000 0.897978 1.693948 1.970793 3.786778 8.720620 8.889322 -0.289205 -1.113311 -1.892150 2.532848 -0.927032 63.057836 12.669036 20.526204 -3.939976 0.000000 0.000000 0.000000 
2.834806 111.998688 0.187199 0.000000 0.000000 0.000000 3.705855 -21.483925 2.086795 -27.324805 15.448237 12.929618 30.693508 11.025285 -2.587890 -2.880565 -11.516382 -2.878633 0.830469 0.171658 -0.279139 0.000000 0.000000 0.000000 4.249418 -21.411265 1.965495 -24.823488 -1.216159 -11.412707 39.782310 1.866803 -2.535554 -7.217168 -3.282936 9.254458 -12.367658 -0.117527 1.949787 0.000000 0.000000 0.000000 4.145489 -20.562674 1.728133 6.925830 2.586026 -0.104364 0.598104 1.751193 1.621556 0.625474 -0.574275 0.785259 0.000000 0.000000 0.000000 1.102484 2.297358 1.715675 -1.283532 39.328851 -10.666208 -3.735467 38.016590 -7.410958 0.000000 0.000000 0.000000 1.322360 2.180028 1.708091 0.801472 6.665908 -2.965985 2.981278 -2.633672 1.236471 -56.892453 13.085499 -22.951281 3.047839 -69.326529 4.386900 0.000000 0.000000 0.000000 1.009431 2.100047 1.781230 3.842679 8.729378 8.798269 -0.015135 -1.084782 -1.656305 2.489442 -1.069387 63.251793 12.380055 20.058469 -4.102642 0.000000 0.000000 0.000000 
